<svg width="64" height="64" viewBox="0 0 64 64" fill="none" xmlns="http://www.w3.org/2000/svg">
<path d="M64 13.936H0V50.064H64V13.936Z" fill="#F7D974"/>
<path d="M0 64V46.832H17.168L0 64Z" fill="#F7D974"/>
<path d="M16.6399 35.616C18.637 35.616 20.2559 33.9971 20.2559 32C20.2559 30.003 18.637 28.384 16.6399 28.384C14.6429 28.384 13.0239 30.003 13.0239 32C13.0239 33.9971 14.6429 35.616 16.6399 35.616Z" fill="white"/>
<path d="M31.9998 35.616C33.9969 35.616 35.6158 33.9971 35.6158 32C35.6158 30.003 33.9969 28.384 31.9998 28.384C30.0027 28.384 28.3838 30.003 28.3838 32C28.3838 33.9971 30.0027 35.616 31.9998 35.616Z" fill="white"/>
<path d="M47.3601 35.616C49.3572 35.616 50.9761 33.9971 50.9761 32C50.9761 30.003 49.3572 28.384 47.3601 28.384C45.3631 28.384 43.7441 30.003 43.7441 32C43.7441 33.9971 45.3631 35.616 47.3601 35.616Z" fill="white"/>
</svg>
