<svg width="64" height="64" viewBox="0 0 64 64" fill="none" xmlns="http://www.w3.org/2000/svg">
<path d="M32 0C14.32 0 0 14.32 0 32C0 49.68 14.32 64 32 64C49.68 64 64 49.68 64 32C64 14.32 49.68 0 32 0ZM32 59.44C16.864 59.44 4.56 47.136 4.56 32C4.56 16.864 16.864 4.56 32 4.56C47.12 4.56 59.44 16.864 59.44 32C59.44 47.136 47.136 59.44 32 59.44Z" fill="#B5FD62"/>
<path d="M32.0001 7.6001C18.5281 7.6001 7.6001 18.5281 7.6001 32.0001C7.6001 45.4721 18.5281 56.4001 32.0001 56.4001C45.4721 56.4001 56.4001 45.4721 56.4001 32.0001C56.4001 18.5281 45.4721 7.6001 32.0001 7.6001ZM32.0001 51.8401C21.0721 51.8401 12.1761 42.9441 12.1761 32.0001C12.1761 21.0561 21.0721 12.1601 32.0001 12.1601C42.9281 12.1601 51.8241 21.0561 51.8241 32.0001C51.8241 42.9441 42.9281 51.8401 32.0001 51.8401Z" fill="#B5FD62"/>
<path d="M31.9998 15.2161C22.7198 15.2161 15.2158 22.7361 15.2158 32.0001C15.2158 41.2641 22.7358 48.7841 31.9998 48.7841C41.2638 48.7841 48.7838 41.2641 48.7838 32.0001C48.7838 22.7361 41.2638 15.2161 31.9998 15.2161ZM31.9998 44.2241C25.2638 44.2241 19.7758 38.7361 19.7758 32.0001C19.7758 25.2641 25.2638 19.7761 31.9998 19.7761C38.7358 19.7761 44.2238 25.2641 44.2238 32.0001C44.2238 38.7361 38.7358 44.2241 31.9998 44.2241Z" fill="#B5FD62"/>
</svg>
