<svg width="64" height="64" viewBox="0 0 64 64" fill="none" xmlns="http://www.w3.org/2000/svg">
<path d="M16 0C24.832 0 32 7.168 32 16C32 24.832 24.832 32 16 32C7.168 32 0 24.832 0 16V0H16Z" fill="#FF8F5B"/>
<path d="M48 32C56.8366 32 64 24.8366 64 16C64 7.16344 56.8366 0 48 0C39.1634 0 32 7.16344 32 16C32 24.8366 39.1634 32 48 32Z" fill="#8BD9CC"/>
<path d="M48 64C56.8366 64 64 56.8366 64 48C64 39.1634 56.8366 32 48 32C39.1634 32 32 39.1634 32 48C32 56.8366 39.1634 64 48 64Z" fill="#F38FBB"/>
<path d="M16 64C24.8366 64 32 56.8366 32 48C32 39.1634 24.8366 32 16 32C7.16344 32 0 39.1634 0 48C0 56.8366 7.16344 64 16 64Z" fill="#F7D974"/>
</svg>
