<svg width="64" height="64" viewBox="0 0 64 64" fill="none" xmlns="http://www.w3.org/2000/svg">
<path d="M8 48C12.4183 48 16 44.4183 16 40C16 35.5817 12.4183 32 8 32C3.58172 32 0 35.5817 0 40C0 44.4183 3.58172 48 8 48Z" fill="#F38FBB"/>
<path d="M23.8398 32C28.2581 32 31.8398 28.4183 31.8398 24C31.8398 19.5817 28.2581 16 23.8398 16C19.4216 16 15.8398 19.5817 15.8398 24C15.8398 28.4183 19.4216 32 23.8398 32Z" fill="#FF8F5B"/>
<path d="M39.6802 48C44.0985 48 47.6802 44.4183 47.6802 40C47.6802 35.5817 44.0985 32 39.6802 32C35.2619 32 31.6802 35.5817 31.6802 40C31.6802 44.4183 35.2619 48 39.6802 48Z" fill="#8BD9CC"/>
<path d="M56 32C60.4183 32 64 28.4183 64 24C64 19.5817 60.4183 16 56 16C51.5817 16 48 19.5817 48 24C48 28.4183 51.5817 32 56 32Z" fill="#B5FD62"/>
</svg>
