<svg width="65" height="64" viewBox="0 0 65 64" fill="none" xmlns="http://www.w3.org/2000/svg">
<path d="M46.892 60.3361C49.676 58.8641 52.3 56.9601 54.636 54.6241L45.02 45.0081C41.548 48.4801 36.924 50.4001 31.996 50.4001C27.068 50.4001 22.46 48.4801 18.972 45.0081L9.35596 54.6241C15.612 60.8801 23.788 64.0001 31.98 64.0001C36.076 64.0001 40.172 63.2161 44.028 61.6641C44.7 61.3921 45.34 61.0721 45.996 60.7521C46.284 60.6081 46.588 60.4961 46.876 60.3521L46.892 60.3361Z" fill="#FF8F5B"/>
<path d="M9.38818 9.37605L19.0042 18.9921C22.4762 15.5201 27.1002 13.6001 32.0282 13.6001C36.9562 13.6001 41.5642 15.5201 45.0522 18.9921L54.6682 9.37605C43.7402 -1.55195 26.8602 -2.92795 14.4282 5.28005C12.6522 6.44805 10.9722 7.82405 9.40418 9.37605H9.38818Z" fill="#F7D974"/>
<path d="M18.988 18.9761L9.372 9.36011C-3.124 21.8561 -3.124 42.1121 9.372 54.6081L18.988 44.9921C11.804 37.8081 11.804 26.1281 18.988 18.9601V18.9761Z" fill="#B5FD62"/>
</svg>
