<svg width="64" height="64" viewBox="0 0 64 64" fill="none" xmlns="http://www.w3.org/2000/svg">
<path d="M36 36.096C34.752 33.776 32.992 31.856 30.752 30.368C29.968 29.84 29.12 29.36 28.224 28.944C29.504 28.048 30.624 27.008 31.536 25.808C33.392 23.408 34.336 20.528 34.336 17.232C34.336 13.36 33.424 10.096 31.6 7.52C29.808 4.96 27.28 3.04 24.128 1.792C21.152 0.592 17.6 0 13.632 0H0V64H14.512C18.8 64 22.704 63.296 26.112 61.92C29.664 60.48 32.544 58.272 34.656 55.344C36.8 52.368 37.888 48.64 37.888 44.256C37.888 41.168 37.264 38.416 36.016 36.096H36Z" fill="#F7D974"/>
</svg>
