<svg width="64" height="64" viewBox="0 0 64 64" fill="none" xmlns="http://www.w3.org/2000/svg">
<path d="M8 16C12.4183 16 16 12.4183 16 8C16 3.58172 12.4183 0 8 0C3.58172 0 0 3.58172 0 8C0 12.4183 3.58172 16 8 16Z" fill="#B5FD62"/>
<path d="M8 32C12.4183 32 16 28.4183 16 24C16 19.5817 12.4183 16 8 16C3.58172 16 0 19.5817 0 24C0 28.4183 3.58172 32 8 32Z" fill="#F38FBB"/>
<path d="M8 48C12.4183 48 16 44.4183 16 40C16 35.5817 12.4183 32 8 32C3.58172 32 0 35.5817 0 40C0 44.4183 3.58172 48 8 48Z" fill="#F7D974"/>
<path d="M8 64C12.4183 64 16 60.4183 16 56C16 51.5817 12.4183 48 8 48C3.58172 48 0 51.5817 0 56C0 60.4183 3.58172 64 8 64Z" fill="#FF8F5B"/>
<path d="M23.8398 16C28.2581 16 31.8398 12.4183 31.8398 8C31.8398 3.58172 28.2581 0 23.8398 0C19.4216 0 15.8398 3.58172 15.8398 8C15.8398 12.4183 19.4216 16 23.8398 16Z" fill="#F7D974"/>
<path d="M23.8398 32C28.2581 32 31.8398 28.4183 31.8398 24C31.8398 19.5817 28.2581 16 23.8398 16C19.4216 16 15.8398 19.5817 15.8398 24C15.8398 28.4183 19.4216 32 23.8398 32Z" fill="#FF8F5B"/>
<path d="M23.8398 48C28.2581 48 31.8398 44.4183 31.8398 40C31.8398 35.5817 28.2581 32 23.8398 32C19.4216 32 15.8398 35.5817 15.8398 40C15.8398 44.4183 19.4216 48 23.8398 48Z" fill="#F38FBB"/>
<path d="M23.8398 64C28.2581 64 31.8398 60.4183 31.8398 56C31.8398 51.5817 28.2581 48 23.8398 48C19.4216 48 15.8398 51.5817 15.8398 56C15.8398 60.4183 19.4216 64 23.8398 64Z" fill="#8BD9CC"/>
<path d="M39.6802 16C44.0985 16 47.6802 12.4183 47.6802 8C47.6802 3.58172 44.0985 0 39.6802 0C35.2619 0 31.6802 3.58172 31.6802 8C31.6802 12.4183 35.2619 16 39.6802 16Z" fill="#FF8F5B"/>
<path d="M39.6802 32C44.0985 32 47.6802 28.4183 47.6802 24C47.6802 19.5817 44.0985 16 39.6802 16C35.2619 16 31.6802 19.5817 31.6802 24C31.6802 28.4183 35.2619 32 39.6802 32Z" fill="#8BD9CC"/>
<path d="M39.6802 48C44.0985 48 47.6802 44.4183 47.6802 40C47.6802 35.5817 44.0985 32 39.6802 32C35.2619 32 31.6802 35.5817 31.6802 40C31.6802 44.4183 35.2619 48 39.6802 48Z" fill="#F7D974"/>
<path d="M39.6802 64C44.0985 64 47.6802 60.4183 47.6802 56C47.6802 51.5817 44.0985 48 39.6802 48C35.2619 48 31.6802 51.5817 31.6802 56C31.6802 60.4183 35.2619 64 39.6802 64Z" fill="#F38FBB"/>
<path d="M56 16C60.4183 16 64 12.4183 64 8C64 3.58172 60.4183 0 56 0C51.5817 0 48 3.58172 48 8C48 12.4183 51.5817 16 56 16Z" fill="#8BD9CC"/>
<path d="M56 32C60.4183 32 64 28.4183 64 24C64 19.5817 60.4183 16 56 16C51.5817 16 48 19.5817 48 24C48 28.4183 51.5817 32 56 32Z" fill="#FF8F5B"/>
<path d="M56 48C60.4183 48 64 44.4183 64 40C64 35.5817 60.4183 32 56 32C51.5817 32 48 35.5817 48 40C48 44.4183 51.5817 48 56 48Z" fill="#B5FD62"/>
<path d="M56 64C60.4183 64 64 60.4183 64 56C64 51.5817 60.4183 48 56 48C51.5817 48 48 51.5817 48 56C48 60.4183 51.5817 64 56 64Z" fill="#F7D974"/>
</svg>
