<svg width="16" height="16" viewBox="0 0 16 16" fill="none" xmlns="http://www.w3.org/2000/svg">
<path d="M9.5 2C9.22386 2 9 2.22386 9 2.5C9 2.77614 9.22386 3 9.5 3H12.2929L6.64645 8.64645C6.45118 8.84171 6.45118 9.15829 6.64645 9.35355C6.84171 9.54882 7.15829 9.54882 7.35355 9.35355L13 3.70711V6.5C13 6.77614 13.2239 7 13.5 7C13.7761 7 14 6.77614 14 6.5V2.5C14 2.22386 13.7761 2 13.5 2H9.5ZM3 4.5C3 4.22386 3.22386 4 3.5 4H7.04545C7.3216 4 7.54545 3.77614 7.54545 3.5C7.54545 3.22386 7.3216 3 7.04545 3H3.5C2.67157 3 2 3.67157 2 4.5V12.5C2 13.3284 2.67157 14 3.5 14H11.5C12.3284 14 13 13.3284 13 12.5V8.95455C13 8.6784 12.7761 8.45455 12.5 8.45455C12.2239 8.45455 12 8.6784 12 8.95455V12.5C12 12.7761 11.7761 13 11.5 13H3.5C3.22386 13 3 12.7761 3 12.5V4.5Z" fill="#282828"/>
</svg>
