<svg width="41" height="133" viewBox="0 0 41 133" fill="none" xmlns="http://www.w3.org/2000/svg">
<g id="Group 34052">
<g id="Group 34050">
<path id="&#227;&#131;&#153;&#227;&#130;&#175;&#227;&#130;&#191;&#227;&#131;&#188;" d="M33.4424 0H40.95V3.40404H40.4211V0.528949H33.4424V0Z" fill="white"/>
<path id="&#227;&#131;&#153;&#227;&#130;&#175;&#227;&#130;&#191;&#227;&#131;&#188;_2" d="M36.4116 5.89523H40.2422V10.7155H39.5341V10.1098H36.4116V13.5138H35.695V10.1098H32.6151V10.7667H31.9326V5.89523H35.695V4.01831L36.6164 4.07803C36.6078 4.14628 36.5481 4.19747 36.4116 4.22307V5.89523ZM32.6151 9.42724H35.695V6.56921H32.6151V9.42724ZM36.4116 9.42724H39.5341V6.56921H36.4116V9.42724Z" fill="white"/>
<path id="&#227;&#131;&#153;&#227;&#130;&#175;&#227;&#130;&#191;&#227;&#131;&#188;_3" d="M33.9872 17.0458C33.9701 17.1311 33.8933 17.1652 33.7653 17.1652C33.4667 18.4961 32.8525 20.3645 31.914 21.5248C31.7519 21.4139 31.4533 21.2347 31.2656 21.1579C32.2041 20.0574 32.7928 18.2658 33.0487 16.8581L33.9872 17.0458ZM35.7788 14.4266L36.7172 14.4778C36.7087 14.5631 36.649 14.6143 36.5039 14.6229V22.7874C36.5039 23.3164 36.3589 23.5382 36.0091 23.6577C35.6423 23.7686 35.0109 23.7942 34.0469 23.7942C33.9957 23.5894 33.8762 23.2652 33.7483 23.069C34.209 23.0775 34.6526 23.086 34.9768 23.086C35.6934 23.086 35.7788 23.086 35.7788 22.796V14.4266ZM40.2748 21.704C40.0189 20.4754 39.1828 18.5303 38.2699 17.0458L38.9269 16.7898C39.8483 18.2487 40.7355 20.1598 41 21.3968L40.2748 21.704Z" fill="white"/>
<path id="&#227;&#131;&#153;&#227;&#130;&#175;&#227;&#130;&#191;&#227;&#131;&#188;_4" d="M36.6845 24.5108C36.6504 24.6046 36.5736 24.6473 36.4712 24.6644C37.4608 26.1232 39.3292 27.7357 40.9331 28.5718C40.771 28.7424 40.5834 28.9727 40.4724 29.1775C38.8344 28.2134 36.9916 26.601 36.0532 25.1763C35.2171 26.5242 33.5023 28.1708 31.7277 29.2372C31.6339 29.0922 31.4377 28.8618 31.3011 28.7168C33.1098 27.676 34.8844 25.91 35.6863 24.4511L36.693 24.5108H36.6845ZM36.5139 30.3804V33.0678H40.5322V33.6992H31.6765V33.0678H33.0416V29.169L33.9203 29.2202C33.9118 29.2884 33.852 29.3396 33.7155 29.3652V33.0678H35.7887V27.2835L36.7101 27.3347C36.7015 27.403 36.6418 27.4541 36.5053 27.4797V29.7491H39.5425V30.3719H36.5053L36.5139 30.3804Z" fill="white"/>
<path id="&#227;&#131;&#153;&#227;&#130;&#175;&#227;&#130;&#191;&#227;&#131;&#188;_5" d="M40.6343 41.7614H37.0852C38.0408 42.5463 39.5338 43.2032 40.8817 43.5018C40.7282 43.6468 40.5234 43.9198 40.421 44.1075C38.9963 43.7065 37.4265 42.8875 36.4198 41.9149V44.2611H35.7373V41.9661C34.7306 42.896 33.1608 43.6724 31.7702 44.0734C31.6763 43.9028 31.4716 43.6298 31.318 43.4932C32.6489 43.1861 34.1248 42.5292 35.0718 41.7614H31.5825V41.1642H35.7373V40.3366H32.5636V39.7821H35.7373V38.9631H32.0432V38.3914H34.3722C34.2699 38.0758 34.0566 37.6322 33.8433 37.308L34.2443 37.2226H31.6251V36.6169H33.3399C33.1864 36.1903 32.8195 35.5419 32.4783 35.0642L33.0584 34.8594C33.4253 35.3287 33.8177 35.9856 33.9713 36.4122L33.4338 36.6169H34.7732V34.7315L35.6434 34.7827C35.6349 34.885 35.5496 34.9362 35.4216 34.9533V36.6084H36.7525V34.7229L37.6398 34.7741C37.6313 34.8765 37.5374 34.9277 37.4009 34.9447V36.5998H38.6892C38.5527 36.5487 38.3991 36.4889 38.3138 36.4548C38.6124 36.0112 38.9707 35.3287 39.1499 34.8594L39.9603 35.1324C39.9433 35.1922 39.858 35.2263 39.7471 35.2263C39.5338 35.6273 39.201 36.1903 38.9195 36.5998H40.6002V37.2056H38.2882L38.5868 37.2994C38.5527 37.3677 38.4759 37.4018 38.3735 37.3933C38.2285 37.6663 38.0066 38.0673 37.8019 38.3744H40.2248V38.946H36.4283V39.765H39.7215V40.3196H36.4283V41.1471H40.6429V41.7443L40.6343 41.7614ZM37.1279 38.3317C37.3156 38.0331 37.5459 37.581 37.6995 37.2312H34.5173C34.7562 37.5724 34.978 38.0161 35.0804 38.3232L34.7647 38.3914H37.29L37.1279 38.3317Z" fill="white"/>
<path id="&#227;&#131;&#153;&#227;&#130;&#175;&#227;&#130;&#191;&#227;&#131;&#188;_6" d="M35.3107 45.4811C35.2936 45.6005 35.1657 45.6517 34.9694 45.6688C34.8585 46.2404 34.6708 47.2301 34.5514 47.8443C35.0121 47.7931 35.4301 47.7505 35.6861 47.7505C37.2388 47.7334 37.7763 48.7657 37.7763 50.3014C37.7763 51.0692 37.6312 51.9821 37.4265 52.5963C37.1108 53.6372 36.4539 54.1405 35.6093 54.1405C35.1913 54.1405 34.6367 53.9699 33.758 53.2532C33.8689 53.0656 33.9542 52.8437 34.031 52.6305C34.85 53.2618 35.2766 53.4068 35.5922 53.4068C36.1724 53.4068 36.5222 53.04 36.7269 52.383C36.9402 51.7517 37.0511 50.8047 37.0511 50.2843C37.0426 49.1155 36.6587 48.4245 35.6349 48.433C35.3278 48.433 34.9097 48.4756 34.3893 48.5354C33.8774 50.6256 33.2717 52.4172 32.2906 54.0637L31.6166 53.7395C32.6062 52.1527 33.1693 50.5658 33.6556 48.6207C33.1352 48.6804 32.3844 48.7742 31.8384 48.8681L31.7787 48.1514C32.282 48.0917 33.1181 47.9979 33.8092 47.9126C33.9627 47.1618 34.1248 46.2404 34.2528 45.3446L35.3192 45.4896L35.3107 45.4811ZM40.0456 50.3952C39.7214 48.9022 38.7489 47.631 37.7422 46.8973L38.2967 46.4708C39.3802 47.2386 40.4551 48.6463 40.7793 50.1137L40.0456 50.3952Z" fill="white"/>
<path id="&#227;&#131;&#153;&#227;&#130;&#175;&#227;&#130;&#191;&#227;&#131;&#188;_7" d="M34.1333 57.4251C34.0907 57.5275 34.0139 57.5787 33.8689 57.5958C33.7835 59.1144 33.5958 60.4026 33.4508 60.6159H33.4593C34.4661 59.8651 36.0273 59.3533 37.2217 59.3533C38.8 59.3533 39.7811 60.1637 39.7555 61.597C39.7214 63.4825 38.1687 64.3185 34.2101 64.4806C34.1589 64.2844 34.0651 64.0029 33.9542 63.8067C37.5288 63.6531 38.9536 63.073 38.9877 61.6056C38.9962 60.6244 38.3137 60.0272 37.1193 60.0272C35.2254 60.0272 33.5191 61.1619 33.229 61.6653L32.5294 61.324C32.7342 61.1278 33.0925 59.2935 33.1096 57.2886L34.1248 57.4081L34.1333 57.4251ZM34.304 55.4373C35.6946 55.5994 37.2729 55.9151 38.2711 56.3331L38.0151 57.0412C36.9572 56.5891 35.4386 56.2905 34.0821 56.1113L34.2954 55.4373H34.304Z" fill="white"/>
<path id="&#227;&#131;&#153;&#227;&#130;&#175;&#227;&#130;&#191;&#227;&#131;&#188;_8" d="M40.2588 72.8415V73.541H31.8212V72.8415H40.2588ZM39.2521 67.2192V67.9273H32.8961V67.2192H39.2521Z" fill="white"/>
<path id="&#227;&#131;&#153;&#227;&#130;&#175;&#227;&#130;&#191;&#227;&#131;&#188;_9" d="M34.27 77.8153C34.5771 78.4381 34.9099 79.4192 35.0378 80.0164L34.4662 80.1699C34.3468 79.5727 34.0226 78.6428 33.7155 77.9944L34.27 77.8238V77.8153ZM40.3785 77.892C40.3614 77.9859 40.2591 78.003 40.1652 77.9944C39.3633 80.9804 37.8617 82.8147 35.3876 83.8129C35.3023 83.6934 35.1231 83.4545 34.9866 83.3436C37.4352 82.3796 38.8343 80.7074 39.5851 77.6532L40.3785 77.892ZM36.7612 77.329C36.9745 78.0115 37.1707 79.0011 37.2389 79.6495L36.6332 79.7604C36.5735 79.1035 36.3773 78.165 36.1554 77.4569L36.7612 77.3204V77.329Z" fill="white"/>
<path id="&#227;&#131;&#153;&#227;&#130;&#175;&#227;&#130;&#191;&#227;&#131;&#188;_10" d="M34.2689 90.7574C33.8082 91.9518 33.1342 93.0097 32.3493 93.7775L31.7521 93.385C32.5199 92.6684 33.1854 91.6958 33.6034 90.5014L34.2689 90.7574ZM36.4614 89.179V93.9737C36.4614 95.0913 35.6595 95.0913 34.03 95.0913C33.9873 94.9036 33.9105 94.6221 33.8167 94.4088C34.1153 94.4173 34.4395 94.4173 34.721 94.4173H35.3182C35.6083 94.4173 35.7363 94.2297 35.7363 93.9908V89.179H32.2554V88.4795H35.7363V86.321L36.7088 86.3722C36.7003 86.4746 36.6235 86.5428 36.47 86.5684V88.4795H39.9252V89.179H36.47H36.4614ZM38.2957 90.4332C39.0465 91.2607 39.8996 92.4722 40.4541 93.4106L39.7972 93.786C39.2939 92.8561 38.3981 91.5337 37.707 90.7574L38.2872 90.4332H38.2957ZM39.6266 85.7153C40.2494 85.7153 40.7613 86.2272 40.7613 86.8585C40.7613 87.4898 40.2494 88.0017 39.6266 88.0017C39.0038 88.0017 38.4663 87.4898 38.4663 86.8585C38.4663 86.2272 38.9953 85.7153 39.6266 85.7153ZM40.42 86.8585C40.42 86.4063 40.0617 86.0395 39.6181 86.0395C39.1744 86.0395 38.799 86.4063 38.799 86.8585C38.799 87.3107 39.1659 87.669 39.6181 87.669C40.0702 87.669 40.42 87.2765 40.42 86.8585Z" fill="white"/>
<path id="&#227;&#131;&#153;&#227;&#130;&#175;&#227;&#130;&#191;&#227;&#131;&#188;_11" d="M32.5628 97.2926C33.6293 97.6338 34.8578 98.1628 35.6086 98.6832L35.2161 99.3231C34.4824 98.8027 33.2709 98.2566 32.2301 97.8983L32.5543 97.2841L32.5628 97.2926ZM32.5202 104.382C36.1546 103.256 38.569 101.217 39.7975 98.3846C40.0108 98.5552 40.2497 98.6917 40.4629 98.8027C39.1832 101.609 36.6835 103.785 33.2197 104.945C33.2112 105.039 33.1515 105.142 33.0747 105.184L32.5202 104.382Z" fill="white"/>
<path id="&#227;&#131;&#153;&#227;&#130;&#175;&#227;&#130;&#191;&#227;&#131;&#188;_12" d="M40.3613 110.789C40.3613 110.789 40.3186 110.806 40.3015 110.806C40.2418 110.806 40.1906 110.772 40.148 110.747C39.3716 111.002 38.2369 111.42 37.3838 111.787C37.4009 112.026 37.4179 112.291 37.4179 112.581C37.4179 112.905 37.4094 113.28 37.3838 113.673L36.633 113.715C36.6671 113.349 36.6842 112.879 36.6842 112.478C36.6842 112.325 36.6842 112.18 36.6757 112.069C35.5154 112.632 34.5769 113.314 34.5769 113.929C34.5769 114.543 35.2851 114.807 36.6927 114.807C37.6824 114.807 38.6038 114.79 39.2607 114.705V115.388C38.6635 115.447 37.7421 115.473 36.6927 115.473C34.7305 115.473 33.8603 115.004 33.8603 113.954C33.8603 113.059 35.0462 112.188 36.5818 111.42C36.5221 110.772 36.232 110.456 35.8225 110.456C35.0718 110.456 34.2954 110.874 33.374 111.898C33.0839 112.214 32.6915 112.615 32.2479 113.016L31.7445 112.513C32.7683 111.608 33.7323 110.755 34.321 108.733H33.7494L32.0431 108.742V108.076C32.6659 108.085 33.3911 108.085 33.8091 108.085H34.5087C34.6196 107.607 34.7134 107.163 34.7817 106.609L35.7799 106.728C35.7628 106.831 35.6775 106.89 35.5239 106.916C35.4557 107.325 35.3618 107.684 35.268 108.051C35.9676 108.042 37.4606 107.88 38.7915 107.453L38.9109 108.136C37.6312 108.537 36.087 108.682 35.0718 108.707C34.8244 109.475 34.5684 110.09 34.3381 110.439H34.3466C34.7988 110.038 35.4727 109.774 35.9932 109.774C36.6927 109.774 37.1278 110.277 37.2643 111.105C38.126 110.712 39.2095 110.294 40.0285 109.979L40.3442 110.755L40.3613 110.789Z" fill="white"/>
<path id="&#227;&#131;&#153;&#227;&#130;&#175;&#227;&#130;&#191;&#227;&#131;&#188;_13" d="M21.7212 8.25373C21.7126 8.32198 21.6358 8.39023 21.5079 8.40729C21.2861 10.3951 20.851 12.2038 18.4195 13.1337C18.3342 12.9631 18.1465 12.7157 17.9929 12.5792C20.2452 11.7687 20.6291 10.1221 20.7998 8.16841L21.7297 8.25373H21.7212ZM24.383 11.982C24.383 12.3318 24.4683 12.4085 24.8863 12.4085H26.3111C26.7547 12.4085 26.823 12.1185 26.8741 10.506C27.0277 10.6425 27.3178 10.762 27.4969 10.8132C27.4287 12.5706 27.2325 13.0484 26.3623 13.0484H24.8181C23.9393 13.0484 23.6919 12.8266 23.6919 11.982V8.04045H18.1294V7.36646H27.2666V8.04045H24.3915V11.982H24.383ZM26.3793 4.35486V5.02031H19.0338V4.35486H26.3793Z" fill="white"/>
<path id="&#227;&#131;&#153;&#227;&#130;&#175;&#227;&#130;&#191;&#227;&#131;&#188;_14" d="M27.1042 15.5822H20.2278C19.7586 16.5121 19.1614 17.3397 18.5216 17.9284C18.3851 17.8089 18.1206 17.6127 17.95 17.5103C18.9055 16.7084 19.7074 15.3177 20.1681 13.8503L21.0383 14.0892C21.0213 14.1575 20.936 14.2001 20.8165 14.2001C20.7227 14.4646 20.6203 14.7291 20.5179 14.985H27.1042V15.5907V15.5822ZM19.6989 19.1825C20.3558 19.5408 21.0639 19.9844 21.7379 20.4366C22.2327 19.9162 22.6593 19.3446 23.0006 18.7389L23.8025 19.046C23.7684 19.1313 23.6575 19.1484 23.5551 19.1398C23.2053 19.7456 22.7787 20.3086 22.2839 20.8291C23.0603 21.3921 23.7513 21.9637 24.195 22.4586L23.6404 22.979C23.2138 22.4842 22.5484 21.8955 21.7891 21.3239C20.8762 22.1856 19.8013 22.9022 18.6922 23.4311C18.5898 23.2861 18.368 23.0387 18.2144 22.9193C19.3064 22.4415 20.3643 21.759 21.2516 20.9229C20.5862 20.4537 19.8781 20.0015 19.2126 19.6347L19.7074 19.1825H19.6989ZM18.9055 17.9284H25.6453C25.6538 20.6584 25.8074 22.6889 26.6264 22.6889C26.8397 22.6889 26.8909 22.0917 26.9165 21.1959C27.0615 21.3495 27.2663 21.5116 27.4113 21.5969C27.3431 22.9107 27.198 23.3714 26.5923 23.3714C25.2443 23.3714 25.014 21.4348 24.9543 18.5426H18.9055V17.9369V17.9284ZM26.0975 17.0411H20.0913V16.4439H26.0975V17.0411Z" fill="white"/>
<path id="&#227;&#131;&#153;&#227;&#130;&#175;&#227;&#130;&#191;&#227;&#131;&#188;_15" d="M20.2612 24.8559C20.2271 24.9668 20.1247 25.0265 19.92 25.018C19.5616 26.6902 19.3739 28.5159 19.3739 29.625C19.3739 30.3928 19.4081 31.1692 19.5105 31.6555C19.7067 31.1521 20.1418 30.0771 20.2868 29.7188L20.7134 30.171C20.2953 31.2033 19.9882 31.792 19.8432 32.2441C19.792 32.4148 19.7579 32.5854 19.7579 32.7219C19.7579 32.8328 19.7749 32.9352 19.8091 33.0376L19.0839 33.1741C18.7597 32.2015 18.6317 31.0156 18.6317 29.6506C18.6317 28.2855 18.845 26.4342 19.1692 24.6682L20.2442 24.8559H20.2612ZM26.7792 32.3294C26.4124 32.3465 26.0285 32.3636 25.6531 32.3636C24.9279 32.3636 24.2369 32.3209 23.7506 32.2527C22.4879 32.065 21.9078 31.3739 21.9078 30.5549C21.9078 29.8468 22.3002 29.2581 22.8718 28.5841L23.5373 28.8742C23.0254 29.4032 22.6671 29.898 22.6671 30.4781C22.6671 31.664 24.4075 31.664 25.4739 31.664C25.9005 31.664 26.3612 31.6469 26.7963 31.6128V32.338L26.7792 32.3294ZM22.0358 26.0844C23.3581 26.0503 25.1327 25.9309 26.4977 25.692L26.5574 26.4086C25.2862 26.6219 23.2302 26.7584 22.0528 26.784L22.0358 26.0759V26.0844Z" fill="white"/>
<path id="&#227;&#131;&#153;&#227;&#130;&#175;&#227;&#130;&#191;&#227;&#131;&#188;_16" d="M18.8712 35.8615H25.3807L25.4404 35.8274L26.14 36.3564C26.14 36.3564 26.0803 36.4246 26.0206 36.4502C25.193 40.2979 23.4099 42.3028 20.2789 43.4886C20.168 43.301 19.9632 43.0365 19.8182 42.8829C22.7957 41.7909 24.5105 39.8884 25.1759 36.5611H18.8712V35.853V35.8615ZM26.6604 34.0273C27.2747 34.0273 27.778 34.5306 27.778 35.1534C27.778 35.7762 27.2747 36.2711 26.6604 36.2711C26.0462 36.2711 25.5343 35.7677 25.5343 35.1534C25.5343 34.505 26.0547 34.0273 26.6604 34.0273ZM27.4453 35.1534C27.4453 34.7098 27.0955 34.3685 26.669 34.3685C26.2424 34.3685 25.8841 34.7183 25.8841 35.1534C25.8841 35.5885 26.2424 35.9383 26.669 35.9383C27.0955 35.9383 27.4453 35.5629 27.4453 35.1534Z" fill="white"/>
<path id="&#227;&#131;&#153;&#227;&#130;&#175;&#227;&#130;&#191;&#227;&#131;&#188;_17" d="M26.2256 46.2613V53.0182H25.4919V52.3698H19.8526V53.0353H19.136V46.2613H26.2256ZM25.4919 51.6873V46.9523H19.8526V51.6873H25.4919Z" fill="white"/>
<path id="&#227;&#131;&#153;&#227;&#130;&#175;&#227;&#130;&#191;&#227;&#131;&#188;_18" d="M18.7686 58.0773C19.69 58.2821 20.8332 58.6745 21.5242 58.9987L21.2171 59.6386C20.5431 59.3144 19.3658 58.9049 18.4614 58.7001L18.7686 58.0773ZM19.3743 63.0768C22.6589 61.9762 24.9794 60.1676 26.3359 57.1218C26.4895 57.2583 26.7966 57.4801 26.9587 57.5825C25.5852 60.6026 23.1622 62.5222 20.0739 63.6228C20.108 63.7166 20.0397 63.8361 19.963 63.8787L19.3828 63.0768H19.3743ZM19.8862 55.535C20.8076 55.7824 21.9337 56.1919 22.6248 56.5332L22.2835 57.1559C21.5583 56.7891 20.4919 56.3796 19.5705 56.1236L19.8776 55.5264L19.8862 55.535ZM24.6808 55.2023C25.0989 55.5606 25.6876 56.1919 26.0032 56.6867L25.6022 56.9853C25.3122 56.5417 24.7235 55.8592 24.3055 55.4923L24.6808 55.2023ZM26.0971 54.5709C26.5151 54.9292 27.0952 55.5776 27.428 56.0469L27.027 56.3455C26.7199 55.8933 26.1483 55.2364 25.7302 54.8695L26.0971 54.5709Z" fill="white"/>
<path id="&#227;&#131;&#153;&#227;&#130;&#175;&#227;&#130;&#191;&#227;&#131;&#188;_19" d="M26.4562 67.1547V67.7519H23.9394V71.7702H27.0278V72.3674H20.1941V71.7702H23.2825V67.7519H20.7828V67.1547H26.4476H26.4562Z" fill="white"/>
<path id="&#227;&#131;&#153;&#227;&#130;&#175;&#227;&#130;&#191;&#227;&#131;&#188;_20" d="M26.2518 77.5119C26.2091 77.5631 26.1579 77.6143 26.0982 77.657C25.0233 80.9757 23.3426 83.1 20.5187 84.5333C20.3992 84.3627 20.203 84.1238 19.9982 83.9702C22.6771 82.6735 24.3322 80.6259 25.1854 77.9129H21.5339C20.9367 78.8343 20.1518 79.7216 19.2389 80.4382C19.0939 80.2932 18.8636 80.097 18.6588 79.969C20.0494 78.894 21.2268 77.3328 21.9264 75.5241L22.8989 75.7971C22.8563 75.8995 22.7368 75.9336 22.6003 75.9336C22.3956 76.3858 22.1823 76.8124 21.9434 77.2219H25.5437L25.6631 77.1621L26.2433 77.5119H26.2518Z" fill="white"/>
<path id="&#227;&#131;&#153;&#227;&#130;&#175;&#227;&#130;&#191;&#227;&#131;&#188;_21" d="M25.5685 91.2561C24.5277 90.693 23.0944 90.0276 21.9768 89.5839V94.7028H21.209V85.813L22.2413 85.8728C22.2328 85.9837 22.1474 86.0605 21.9768 86.0861V89.0721L22.1304 88.8588C23.3248 89.3024 24.9116 90.002 25.9781 90.5651L25.5685 91.2476V91.2561Z" fill="white"/>
<path id="&#227;&#131;&#153;&#227;&#130;&#175;&#227;&#130;&#191;&#227;&#131;&#188;_22" d="M25.4322 99.1562H17.9246V95.7521H18.4706V98.6272H25.4408V99.1562H25.4322Z" fill="white"/>
</g>
<g id="Group 34051">
<path id="&#227;&#131;&#153;&#227;&#130;&#175;&#227;&#130;&#191;&#227;&#131;&#188;_23" d="M3.81376 0.307132C3.77963 0.375383 3.70285 0.409509 3.57488 0.409509C2.90089 1.9537 1.82593 3.50642 0.733906 4.5046C0.588872 4.35957 0.315865 4.13775 0.128174 4.03537C1.22873 3.12251 2.2781 1.56125 2.91795 0L3.81376 0.307132ZM4.89725 3.70264C4.86312 3.78796 4.77781 3.83915 4.6413 3.83915C4.16354 5.05914 3.40425 6.69718 2.72173 7.93424C4.16354 7.89158 5.86983 7.83186 7.5164 7.77214C7.02158 7.07256 6.44997 6.33033 5.93808 5.7246L6.58647 5.41746C7.54199 6.50096 8.62549 7.94277 9.14591 8.8727L8.46339 9.24808C8.32689 8.99214 8.14773 8.69354 7.93444 8.36934C5.36648 8.52291 2.63642 8.63382 0.938661 8.7106C0.921598 8.79591 0.844815 8.8471 0.776563 8.85563L0.486494 7.99396L1.94537 7.9513C2.66201 6.68012 3.48103 4.81173 3.95026 3.4467L4.90578 3.70264H4.89725ZM6.52675 0C7.23486 1.38209 8.55724 3.04572 9.51276 3.91593C9.32506 4.06097 9.06912 4.31691 8.94115 4.49607C7.9771 3.51495 6.66326 1.73188 5.8613 0.273006L6.52675 0Z" fill="white"/>
<path id="&#227;&#131;&#153;&#227;&#130;&#175;&#227;&#130;&#191;&#227;&#131;&#188;_24" d="M9.39374 12.5668H6.31389C6.56983 15.8856 7.38032 18.7265 8.48087 18.7265C8.77947 18.7265 8.90745 18.1293 8.9757 16.7387C9.13779 16.8923 9.39374 17.0544 9.58996 17.1311C9.45346 18.9313 9.18045 19.4517 8.42115 19.4517C6.74899 19.4517 5.88732 16.2695 5.59725 12.5668H0.16272V11.8928H5.54606C5.51193 11.2615 5.49487 10.6131 5.48634 9.97327L6.45039 10.0245C6.45039 10.1183 6.39067 10.1695 6.2371 10.1866C6.2371 10.7582 6.24564 11.3298 6.27976 11.8928H9.40227V12.5668H9.39374ZM3.12313 14.8447V17.8904C3.8739 17.7283 4.65026 17.5492 5.40102 17.3786L5.45221 17.9843C3.70327 18.4279 1.81782 18.863 0.64048 19.119C0.631949 19.2043 0.572229 19.264 0.495446 19.2811L0.205377 18.4791C0.811109 18.3682 1.57894 18.2146 2.42355 18.0269V14.8362H0.52104V14.1793H5.10242V14.8362H3.1146L3.12313 14.8447ZM7.43151 9.9818C7.98605 10.3487 8.6515 10.8861 8.96717 11.253L8.4894 11.7051C8.17374 11.3298 7.52535 10.7496 6.97081 10.3742L7.43151 9.9818Z" fill="white"/>
<path id="&#227;&#131;&#153;&#227;&#130;&#175;&#227;&#130;&#191;&#227;&#131;&#188;_25" d="M9.08537 21.3883C9.08537 21.3883 9.00005 21.4566 8.94886 21.4822C8.39432 22.796 7.51558 23.9307 6.52593 24.7582C6.37237 24.6217 6.0823 24.4426 5.90314 24.3402C6.8416 23.6577 7.6009 22.6595 7.94215 21.8064H0.613647V21.1068H8.32607L8.43698 21.0556L9.07683 21.3969L9.08537 21.3883ZM5.09265 23.2482C5.08412 23.3335 4.99028 23.4017 4.85377 23.4188C4.55517 25.8332 3.72762 28.1367 1.62036 29.3567C1.47532 29.2373 1.21085 28.9984 1.01463 28.8875C3.10483 27.7443 3.84706 25.6029 4.09447 23.1373L5.08412 23.2482H5.09265Z" fill="white"/>
<path id="&#227;&#131;&#153;&#227;&#130;&#175;&#227;&#130;&#191;&#227;&#131;&#188;_26" d="M1.23629 31.5237C2.30272 31.8649 3.53125 32.3939 4.28201 32.9143L3.88957 33.5542C3.15586 33.0337 1.9444 32.4877 0.903564 32.1294L1.22776 31.5151L1.23629 31.5237ZM1.19363 38.6133C4.82803 37.4871 7.24242 35.4481 8.47095 32.6157C8.68424 32.7863 8.92312 32.9228 9.1364 33.0337C7.85669 35.8406 5.35698 38.0161 1.89321 39.1764C1.88468 39.2702 1.82496 39.3726 1.74818 39.4153L1.19363 38.6133Z" fill="white"/>
<path id="&#227;&#131;&#153;&#227;&#130;&#175;&#227;&#130;&#191;&#227;&#131;&#188;_27" d="M3.49853 42.5293C3.4644 42.6146 3.38762 42.6743 3.23405 42.6828C2.82454 45.1399 1.97993 47.7249 0.776998 49.2435C0.589306 49.0985 0.3163 48.9705 0.0944824 48.8767C1.2377 47.486 2.14203 44.8839 2.46622 42.316L3.49853 42.5293ZM8.64299 49.1753C8.16523 47.3837 6.97082 44.483 5.92146 42.589L6.58691 42.2733C7.66187 44.1076 8.85627 46.9912 9.39375 48.8852L8.64299 49.1838V49.1753ZM7.15852 40.9509C7.62774 41.369 8.1311 42.0088 8.40411 42.4695L8.01166 42.7596C7.72159 42.2989 7.19264 41.6335 6.76607 41.241L7.15852 40.9509ZM8.51501 40.422C8.97571 40.8486 9.4876 41.4628 9.76914 41.9235L9.36816 42.2221C9.07809 41.7614 8.54914 41.1045 8.12257 40.7206L8.51501 40.422Z" fill="white"/>
<path id="&#227;&#131;&#153;&#227;&#130;&#175;&#227;&#130;&#191;&#227;&#131;&#188;_28" d="M9.20603 54.2344H7.06464V54.9425C7.06464 56.8962 6.45891 58.884 3.78857 60.0869C3.65206 59.9248 3.43878 59.7201 3.25962 59.5751C5.86171 58.4489 6.33947 56.6317 6.33947 54.951V54.2344H3.0378V56.7853H2.31263V54.2344H0.307739V53.5348H2.31263V51.3166L3.29374 51.3763C3.28521 51.4787 3.19137 51.5726 3.0378 51.5896V53.5348H6.33947V51.1801L7.32058 51.2398C7.31205 51.3337 7.22674 51.4105 7.06464 51.4361V53.5348H9.20603V54.2344Z" fill="white"/>
<path id="&#227;&#131;&#153;&#227;&#130;&#175;&#227;&#130;&#191;&#227;&#131;&#188;_29" d="M8.10509 63.1837C8.09656 63.2435 8.04537 63.2691 7.98565 63.2947C7.6188 64.5317 7.12397 65.692 6.50118 66.6731C6.94481 66.929 7.4823 67.2447 7.86621 67.5092L7.43964 68.1746C7.07279 67.8846 6.50971 67.5518 6.07461 67.2959C5.13615 68.5927 3.95881 69.642 2.39756 70.3672C2.29518 70.1966 2.03071 69.9492 1.84301 69.8212C3.33602 69.1472 4.50482 68.149 5.43475 66.929C4.67545 66.511 3.89056 66.1271 3.13979 65.8541L3.54077 65.291C4.29154 65.564 5.08496 65.9223 5.86132 66.3318C6.38174 65.5299 6.81684 64.5488 7.08985 63.6188H3.7114C3.05448 64.7194 2.24399 65.7261 1.40791 66.4086C1.28847 66.2892 0.998401 66.0588 0.836304 65.9479C2.16721 64.9242 3.34455 63.1326 3.95881 61.3836L4.91433 61.6566C4.87168 61.7675 4.75223 61.8016 4.62426 61.7931C4.47923 62.16 4.30007 62.5609 4.10385 62.9278H7.42257L7.51642 62.8937L8.11362 63.1667L8.10509 63.1837ZM7.1581 61.1533C7.63586 61.5286 8.216 62.1429 8.52313 62.5865L8.13068 62.9022C7.84062 62.4927 7.24341 61.8272 6.79125 61.4689L7.1581 61.1533ZM8.47194 60.7693C8.9497 61.1447 9.55544 61.7505 9.86257 62.1856L9.46159 62.4927C9.18858 62.0747 8.54873 61.4348 8.11362 61.0935L8.47194 60.7779V60.7693Z" fill="white"/>
<path id="&#227;&#131;&#153;&#227;&#130;&#175;&#227;&#130;&#191;&#227;&#131;&#188;_30" d="M4.35071 71.7665L5.40861 71.8518C5.40008 71.9627 5.30623 72.0395 5.1356 72.0651V80.4344H4.35924V71.7665H4.35071Z" fill="white"/>
<path id="&#227;&#131;&#153;&#227;&#130;&#175;&#227;&#130;&#191;&#227;&#131;&#188;_31" d="M8.01088 92.1224C7.96823 92.1821 7.89998 92.2163 7.772 92.2077C7.48194 92.6087 7.01271 93.1803 6.62879 93.5557H9.39298V94.187H0.144897V93.5557H2.95174C2.70433 93.1462 2.20097 92.5405 1.75734 92.1139L2.36307 91.8409C2.8323 92.2589 3.36978 92.8646 3.60866 93.2827L3.00293 93.5557H6.56054L6.006 93.3083C6.39844 92.8988 6.88473 92.2504 7.15774 91.7982L8.01088 92.1224ZM4.06083 95.1511L4.41062 95.1596V100.543C4.41062 101.268 4.06936 101.328 2.61901 101.328C2.57636 101.14 2.47398 100.884 2.38013 100.714C2.60195 100.722 2.8323 100.722 3.01146 100.722C3.49491 100.722 3.73663 100.657 3.73663 100.526V99.0755H1.5014V101.353H0.844475V95.1425H4.06083V95.1511ZM3.74516 95.7483H1.5014V96.8403H3.74516V95.7483ZM1.5014 98.521H3.74516V97.3948H1.5014V98.521ZM5.57942 95.2535L6.4411 95.3132C6.43257 95.3729 6.37285 95.4241 6.23634 95.4497V99.5106H5.57942V95.2535ZM8.61662 100.5C8.61662 101.302 8.30095 101.362 6.5776 101.362C6.54348 101.166 6.42404 100.884 6.32166 100.697C6.69704 100.705 7.05536 100.714 7.31131 100.714C7.87438 100.714 7.9341 100.714 7.9341 100.5V94.9378L8.81284 94.9804C8.79578 95.0487 8.74459 95.1169 8.60809 95.1255V100.509L8.61662 100.5Z" fill="white"/>
<path id="&#227;&#131;&#153;&#227;&#130;&#175;&#227;&#130;&#191;&#227;&#131;&#188;_32" d="M0.571777 102.787H9.0435V111.497H8.33539V110.849H1.25429V111.497H0.571777V102.787ZM4.38533 103.461H1.25429V106.43H4.38533V103.461ZM1.25429 107.112V110.158H4.38533V107.112H1.25429ZM8.33539 106.43V103.461H5.08491V106.43H8.33539ZM5.08491 110.167H8.33539V107.121H5.08491V110.167Z" fill="white"/>
<path id="&#227;&#131;&#153;&#227;&#130;&#175;&#227;&#130;&#191;&#227;&#131;&#188;_33" d="M2.85803 119.124C3.55761 119.065 4.28278 119.005 4.99942 118.928V119.483C4.28278 119.568 3.55761 119.645 2.85803 119.722V121.121C2.85803 121.786 2.50824 121.82 1.16881 121.82C1.13468 121.65 1.04937 121.411 0.964053 121.24C1.44181 121.257 1.88545 121.257 2.02195 121.257C2.14139 121.249 2.18405 121.215 2.18405 121.104V119.79C1.47594 119.858 0.844612 119.935 0.349789 119.978C0.341258 120.063 0.281538 120.114 0.196223 120.123L0 119.372C0.580138 119.329 1.33944 119.261 2.17552 119.184V118.527L2.46559 118.544C2.80684 118.331 3.13957 118.067 3.42964 117.794H0.341258V117.231H4.0439L4.15481 117.196L4.65817 117.521C4.62404 117.572 4.56432 117.606 4.5046 117.606C4.09509 118.024 3.4467 118.536 2.85803 118.894V119.107V119.124ZM4.91411 113.425V114.031H0.0341258V113.425H2.18405V112.299L3.05426 112.359C3.04572 112.427 2.99454 112.478 2.85803 112.496V113.425H4.91411ZM4.28278 116.667H0.631326V114.611H4.28278V116.667ZM1.27972 115.132V116.147H3.6088V115.132H1.27972ZM9.52962 114.893H8.93242C8.63382 116.574 8.18165 117.981 7.4906 119.124C8.00249 119.978 8.68501 120.711 9.59787 121.215C9.45284 121.351 9.22249 121.641 9.12011 121.829C8.2499 121.291 7.58445 120.558 7.07256 119.739C6.40711 120.617 5.55397 121.317 4.47047 121.837C4.3681 121.684 4.15481 121.419 4.00125 121.283C5.15299 120.763 6.0232 120.02 6.68865 119.048C6.21089 118.092 5.90376 117.06 5.699 116.087C5.48572 116.565 5.24684 117.009 4.99089 117.367C4.87998 117.222 4.6411 116.975 4.48754 116.855C5.21271 115.831 5.75872 114.04 6.06585 112.274L6.97872 112.478C6.96165 112.547 6.88487 112.589 6.73984 112.589C6.62893 113.152 6.49242 113.716 6.33886 114.262H9.52109V114.884L9.52962 114.893ZM6.15117 114.893C6.14264 114.944 6.11704 114.987 6.10851 115.038C6.2962 116.138 6.58627 117.316 7.08963 118.391C7.61004 117.418 7.96836 116.249 8.20724 114.893H6.15117Z" fill="white"/>
<path id="&#227;&#131;&#153;&#227;&#130;&#175;&#227;&#130;&#191;&#227;&#131;&#188;_34" d="M9.47906 127.204V127.886H5.15363V131.128C5.15363 131.623 5.01712 131.828 4.65027 131.947C4.28342 132.058 3.61797 132.067 2.60273 132.067C2.55154 131.862 2.4321 131.555 2.30413 131.35C2.85014 131.367 3.36202 131.384 3.72034 131.384C4.3602 131.384 4.44552 131.384 4.44552 131.12V127.886H0.0944824V127.204H4.44552V125.523L4.84649 125.54C5.65698 125.122 6.53572 124.516 7.19264 123.953H1.15238V123.279H7.94341L8.06285 123.228L8.67711 123.638C8.64298 123.689 8.5662 123.706 8.50648 123.731C7.6704 124.533 6.30537 125.489 5.13656 126.095V127.204H9.462H9.47906Z" fill="white"/>
</g>
</g>
</svg>
