<svg width="38" height="292" viewBox="0 0 38 292" fill="none" xmlns="http://www.w3.org/2000/svg">
<g clip-path="url(#clip0_1460_19787)">
<path d="M27.4033 1.06201H37.6736V5.71865H36.95V1.7856H27.4033V1.06201Z" fill="white"/>
<path d="M31.4641 9.12665H36.7042V15.7206H35.7356V14.892H31.4641V19.5486H30.4837V14.892H26.2706V15.7907H25.3369V9.12665H30.4837V6.55908L31.7442 6.64078C31.7325 6.73414 31.6508 6.80417 31.4641 6.83918V9.12665ZM26.2706 13.9583H30.4837V10.0486H26.2706V13.9583ZM31.4641 13.9583H35.7356V10.0486H31.4641V13.9583Z" fill="white"/>
<path d="M28.1497 24.3803C28.1264 24.497 28.0214 24.5437 27.8463 24.5437C27.4378 26.3643 26.5975 28.9202 25.3137 30.5074C25.092 30.3557 24.6835 30.1106 24.4268 30.0056C25.7105 28.5001 26.5158 26.0492 26.8659 24.1235L28.1497 24.3803ZM30.6006 20.7974L31.8844 20.8674C31.8727 20.9841 31.791 21.0541 31.5926 21.0658V32.2347C31.5926 32.9583 31.3942 33.2617 30.9157 33.4251C30.4139 33.5768 29.5502 33.6119 28.2314 33.6119C28.1614 33.3318 27.998 32.8883 27.8229 32.6198C28.4532 32.6315 29.0601 32.6432 29.5035 32.6432C30.4839 32.6432 30.6006 32.6432 30.6006 32.2464V20.7974ZM36.7511 30.7525C36.401 29.0719 35.2572 26.411 34.0085 24.3803L34.9071 24.0302C36.1675 26.0259 37.3813 28.6401 37.7431 30.3324L36.7511 30.7525Z" fill="white"/>
<path d="M31.8379 34.5922C31.7912 34.7206 31.6862 34.7789 31.5461 34.8023C32.8999 36.798 35.4558 39.0037 37.6499 40.1475C37.4282 40.3809 37.1714 40.696 37.0197 40.9761C34.7789 39.6573 32.258 37.4515 30.9742 35.5025C29.8305 37.3465 27.4847 39.599 25.0572 41.0578C24.9288 40.8594 24.6604 40.5443 24.4736 40.3459C26.9478 38.922 29.3754 36.5062 30.4724 34.5105L31.8496 34.5922H31.8379ZM31.6045 42.6217V46.298H37.1014V47.1616H24.9871V46.298H26.8545V40.9644L28.0566 41.0345C28.0449 41.1278 27.9632 41.1978 27.7765 41.2329V46.298H30.6125V38.3852L31.8729 38.4552C31.8612 38.5486 31.7795 38.6186 31.5928 38.6536V41.758H35.7476V42.61H31.5928L31.6045 42.6217Z" fill="white"/>
<path d="M37.2415 58.1904H32.3865C33.6936 59.2641 35.736 60.1627 37.58 60.5712C37.3699 60.7696 37.0898 61.1431 36.9498 61.3998C35.0008 60.8513 32.8533 59.7309 31.4762 58.4005V61.6099H30.5425V58.4705C29.1654 59.7426 27.018 60.8046 25.1156 61.3532C24.9872 61.1198 24.7071 60.7463 24.4971 60.5596C26.3177 60.1394 28.3368 59.2408 29.6322 58.1904H24.8589V57.3734H30.5425V56.2414H26.201V55.4828H30.5425V54.3624H25.4891V53.5804H28.6752C28.5352 53.1486 28.2434 52.5417 27.9516 52.0983L28.5001 51.9815H24.9172V51.1529H27.263C27.053 50.5694 26.5511 49.6824 26.0843 49.0288L26.8779 48.7487C27.3797 49.3906 27.9166 50.2893 28.1267 50.8728L27.3914 51.1529H29.2237V48.5737L30.4141 48.6437C30.4025 48.7838 30.2858 48.8538 30.1107 48.8771V51.1412H31.9313V48.562L33.1451 48.632C33.1334 48.7721 33.0051 48.8421 32.8183 48.8654V51.1296H34.5806C34.3939 51.0596 34.1838 50.9779 34.0671 50.9312C34.4756 50.3243 34.9657 49.3906 35.2108 48.7487L36.3196 49.1222C36.2962 49.2039 36.1795 49.2506 36.0278 49.2506C35.736 49.7991 35.2809 50.5694 34.8957 51.1296H37.1949V51.9582H34.0321L34.4406 52.0866C34.3939 52.1799 34.2888 52.2266 34.1488 52.215C33.9504 52.5884 33.6469 53.1369 33.3668 53.5571H36.6813V54.339H31.4879V55.4594H35.9928V56.218H31.4879V57.3501H37.2532V58.167L37.2415 58.1904ZM32.4449 53.4987C32.7016 53.0903 33.0167 52.4717 33.2268 51.9932H28.8736C29.2004 52.46 29.5038 53.0669 29.6439 53.4871L29.2121 53.5804H32.6666L32.4449 53.4987Z" fill="white"/>
<path d="M29.9587 63.2788C29.9354 63.4422 29.7603 63.5122 29.4919 63.5355C29.3402 64.3175 29.0834 65.6713 28.92 66.5116C29.5502 66.4415 30.1221 66.3832 30.4722 66.3832C32.5963 66.3599 33.3316 67.772 33.3316 69.8728C33.3316 70.9231 33.1332 72.1719 32.8531 73.0122C32.4212 74.436 31.5226 75.1246 30.3672 75.1246C29.7953 75.1246 29.0367 74.8912 27.8346 73.9108C27.9864 73.6541 28.1031 73.3506 28.2081 73.0589C29.3285 73.9225 29.912 74.1209 30.3438 74.1209C31.1375 74.1209 31.616 73.6191 31.8961 72.7204C32.1878 71.8568 32.3395 70.5613 32.3395 69.8494C32.3279 68.2505 31.8027 67.3052 30.4022 67.3169C29.9821 67.3169 29.4102 67.3752 28.6983 67.4569C27.998 70.3162 27.1694 72.7671 25.8273 75.0196L24.9053 74.5761C26.2591 72.4053 27.0294 70.2345 27.6946 67.5736C26.9827 67.6553 25.9556 67.7837 25.2087 67.9121L25.127 66.9317C25.8156 66.85 26.9593 66.7216 27.9047 66.6049C28.1147 65.5779 28.3365 64.3175 28.5115 63.092L29.9704 63.2904L29.9587 63.2788ZM36.436 70.0011C35.9925 67.9587 34.662 66.2198 33.2849 65.2161L34.0435 64.6326C35.5257 65.6829 36.9962 67.6086 37.4397 69.616L36.436 70.0011Z" fill="white"/>
<path d="M28.3484 79.618C28.29 79.758 28.185 79.828 27.9866 79.8514C27.8699 81.9288 27.6131 83.6911 27.4147 83.9828H27.4264C28.8036 82.9558 30.9393 82.2556 32.5732 82.2556C34.7323 82.2556 36.0744 83.3643 36.0394 85.325C35.9927 87.9042 33.8687 89.0479 28.4534 89.2697C28.3834 89.0013 28.255 88.6161 28.1033 88.3477C32.9934 88.1376 34.9424 87.344 34.9891 85.3366C35.0007 83.9945 34.0671 83.1775 32.4332 83.1775C29.8423 83.1775 27.5081 84.7298 27.1113 85.4183L26.1543 84.9515C26.4344 84.6831 26.9246 82.1739 26.9479 79.4312L28.3367 79.5946L28.3484 79.618ZM28.5818 76.8987C30.4841 77.1204 32.6432 77.5522 34.0087 78.1241L33.6586 79.0928C32.2114 78.4742 30.134 78.0658 28.2784 77.8207L28.5701 76.8987H28.5818Z" fill="white"/>
<path d="M36.7279 100.707V101.664H25.1855V100.707H36.7279ZM35.3508 93.0159V93.9845H26.6561V93.0159H35.3508Z" fill="white"/>
<path d="M28.535 107.511C28.9551 108.363 29.4103 109.705 29.5853 110.522L28.8034 110.732C28.64 109.915 28.1965 108.643 27.7764 107.756L28.535 107.523V107.511ZM36.8912 107.616C36.8679 107.745 36.7278 107.768 36.5995 107.756C35.5024 111.841 33.4484 114.35 30.0638 115.716C29.9471 115.552 29.702 115.226 29.5153 115.074C32.8648 113.755 34.7788 111.468 35.8059 107.289L36.8912 107.616ZM31.9428 106.846C32.2346 107.78 32.503 109.133 32.5964 110.02L31.7678 110.172C31.6861 109.273 31.4176 107.99 31.1142 107.021L31.9428 106.834V106.846Z" fill="white"/>
<path d="M28.5347 125.216C27.9045 126.849 26.9825 128.297 25.9088 129.347L25.0918 128.81C26.1422 127.83 27.0525 126.499 27.6244 124.865L28.5347 125.216ZM31.5341 123.056V129.615C31.5341 131.144 30.437 131.144 28.2079 131.144C28.1495 130.888 28.0445 130.502 27.9161 130.211C28.3246 130.222 28.7681 130.222 29.1532 130.222H29.9702C30.367 130.222 30.542 129.966 30.542 129.639V123.056H25.7804V122.099H30.542V119.147L31.8725 119.217C31.8608 119.357 31.7558 119.45 31.5457 119.485V122.099H36.2724V123.056H31.5457H31.5341ZM34.0433 124.772C35.0703 125.904 36.2374 127.561 36.996 128.845L36.0973 129.359C35.4088 128.087 34.1833 126.278 33.238 125.216L34.0316 124.772H34.0433ZM35.8639 118.318C36.7159 118.318 37.4161 119.018 37.4161 119.882C37.4161 120.746 36.7159 121.446 35.8639 121.446C35.0119 121.446 34.2767 120.746 34.2767 119.882C34.2767 119.018 35.0003 118.318 35.8639 118.318ZM36.9493 119.882C36.9493 119.263 36.4591 118.762 35.8522 118.762C35.2454 118.762 34.7318 119.263 34.7318 119.882C34.7318 120.501 35.2337 120.991 35.8522 120.991C36.4708 120.991 36.9493 120.454 36.9493 119.882Z" fill="white"/>
<path d="M26.2013 134.155C27.6601 134.622 29.3407 135.346 30.3677 136.058L29.8309 136.933C28.8272 136.221 27.1699 135.474 25.7461 134.984L26.1896 134.144L26.2013 134.155ZM26.1429 143.854C31.1146 142.313 34.4175 139.524 36.0981 135.649C36.3898 135.883 36.7166 136.069 37.0084 136.221C35.2578 140.061 31.8382 143.037 27.0999 144.624C27.0882 144.753 27.0065 144.893 26.9015 144.951L26.1429 143.854Z" fill="white"/>
<path d="M36.8685 152.619C36.8685 152.619 36.8102 152.642 36.7868 152.642C36.7051 152.642 36.6351 152.595 36.5768 152.56C35.5147 152.91 33.9625 153.482 32.7954 153.984C32.8188 154.311 32.8421 154.673 32.8421 155.069C32.8421 155.513 32.8304 156.026 32.7954 156.563L31.7684 156.622C31.8151 156.12 31.8384 155.478 31.8384 154.929C31.8384 154.719 31.8384 154.521 31.8268 154.369C30.2395 155.139 28.9557 156.073 28.9557 156.913C28.9557 157.754 29.9244 158.115 31.8501 158.115C33.2039 158.115 34.4643 158.092 35.363 157.975V158.909C34.546 158.991 33.2856 159.026 31.8501 159.026C29.1658 159.026 27.9754 158.384 27.9754 156.948C27.9754 155.723 29.5976 154.533 31.6984 153.482C31.6167 152.595 31.2199 152.163 30.6597 152.163C29.6327 152.163 28.5706 152.735 27.3102 154.136C26.9134 154.568 26.3765 155.116 25.7696 155.665L25.0811 154.976C26.4815 153.739 27.8003 152.572 28.6056 149.806H27.8237L25.4895 149.818V148.907C26.3415 148.919 27.3335 148.919 27.9054 148.919H28.8624C29.0141 148.265 29.1425 147.659 29.2358 146.9L30.6013 147.063C30.578 147.203 30.4613 147.285 30.2512 147.32C30.1578 147.88 30.0295 148.37 29.9011 148.872C30.8581 148.861 32.9005 148.639 34.7211 148.055L34.8845 148.989C33.1339 149.537 31.0215 149.736 29.6327 149.771C29.2942 150.821 28.9441 151.662 28.629 152.14H28.6406C29.2592 151.592 30.1812 151.23 30.8931 151.23C31.8501 151.23 32.4453 151.918 32.632 153.05C33.8108 152.514 35.293 151.942 36.4134 151.51L36.8452 152.572L36.8685 152.619Z" fill="white"/>
<path d="M29.7134 166.974C29.7017 167.067 29.5967 167.16 29.4216 167.184C29.1182 169.903 28.523 172.377 25.1968 173.649C25.0801 173.416 24.8234 173.077 24.6133 172.891C27.6944 171.782 28.2195 169.53 28.453 166.857L29.7251 166.974H29.7134ZM33.3547 172.074C33.3547 172.552 33.4714 172.657 34.0433 172.657H35.9923C36.5992 172.657 36.6925 172.261 36.7625 170.055C36.9726 170.241 37.3694 170.405 37.6145 170.475C37.5211 172.879 37.2527 173.533 36.0623 173.533H33.9499C32.7478 173.533 32.4093 173.229 32.4093 172.074V166.682H24.8V165.76H37.2994V166.682H33.3664V172.074H33.3547ZM36.0856 161.64V162.55H26.0371V161.64H36.0856Z" fill="white"/>
<path d="M37.0784 176.999H27.6718C27.0299 178.271 26.2129 179.403 25.3376 180.208C25.1509 180.045 24.7891 179.776 24.5557 179.636C25.8628 178.539 26.9598 176.637 27.5901 174.63L28.7805 174.956C28.7571 175.05 28.6404 175.108 28.477 175.108C28.3487 175.47 28.2086 175.832 28.0686 176.182H37.0784V177.01V176.999ZM26.9482 181.924C27.8468 182.414 28.8155 183.021 29.7375 183.639C30.4144 182.928 30.9979 182.146 31.4648 181.317L32.5618 181.737C32.5151 181.854 32.3634 181.877 32.2234 181.866C31.7449 182.694 31.1613 183.464 30.4844 184.176C31.5465 184.947 32.4918 185.729 33.0987 186.405L32.3401 187.117C31.7565 186.44 30.8462 185.635 29.8075 184.853C28.5587 186.032 27.0882 187.012 25.571 187.736C25.431 187.537 25.1275 187.199 24.9175 187.036C26.4113 186.382 27.8585 185.448 29.0722 184.305C28.1619 183.663 27.1933 183.044 26.2829 182.542L26.9598 181.924H26.9482ZM25.8628 180.208H35.0827C35.0944 183.943 35.3044 186.721 36.4248 186.721C36.7166 186.721 36.7866 185.904 36.8216 184.678C37.02 184.888 37.3001 185.11 37.4985 185.227C37.4052 187.024 37.2068 187.654 36.3781 187.654C34.5342 187.654 34.2191 185.005 34.1374 181.049H25.8628V180.22V180.208ZM35.7012 178.994H27.485V178.178H35.7012V178.994Z" fill="white"/>
<path d="M27.7174 189.685C27.6707 189.837 27.5307 189.918 27.2506 189.907C26.7604 192.194 26.5036 194.692 26.5036 196.209C26.5036 197.259 26.5503 198.321 26.6904 198.987C26.9588 198.298 27.554 196.827 27.7524 196.337L28.3359 196.956C27.7641 198.368 27.3439 199.173 27.1455 199.792C27.0755 200.025 27.0288 200.259 27.0288 200.445C27.0288 200.597 27.0522 200.737 27.0988 200.877L26.1068 201.064C25.6633 199.734 25.4883 198.111 25.4883 196.244C25.4883 194.377 25.78 191.844 26.2235 189.428L27.6941 189.685H27.7174ZM36.6339 199.909C36.132 199.932 35.6068 199.955 35.0933 199.955C34.1013 199.955 33.156 199.897 32.4907 199.804C30.7635 199.547 29.9699 198.601 29.9699 197.481C29.9699 196.512 30.5067 195.707 31.2886 194.785L32.199 195.182C31.4987 195.906 31.0086 196.582 31.0086 197.376C31.0086 198.998 33.3894 198.998 34.8482 198.998C35.4318 198.998 36.062 198.975 36.6572 198.928V199.92L36.6339 199.909ZM30.1449 191.366C31.9539 191.319 34.3814 191.155 36.2487 190.829L36.3304 191.809C34.5915 192.101 31.7788 192.288 30.1683 192.323L30.1449 191.354V191.366Z" fill="white"/>
<path d="M25.8154 204.74H34.7202L34.8019 204.693L35.7589 205.417C35.7589 205.417 35.6772 205.51 35.5955 205.545C34.4635 210.809 32.0243 213.552 27.7411 215.174C27.5894 214.917 27.3093 214.555 27.1109 214.345C31.184 212.851 33.5298 210.249 34.4401 205.697H25.8154V204.728V204.74ZM36.4708 202.231C37.3111 202.231 37.9997 202.92 37.9997 203.772C37.9997 204.623 37.3111 205.3 36.4708 205.3C35.6305 205.3 34.9303 204.612 34.9303 203.772C34.9303 202.885 35.6422 202.231 36.4708 202.231ZM37.5445 203.772C37.5445 203.165 37.066 202.698 36.4825 202.698C35.899 202.698 35.4088 203.176 35.4088 203.772C35.4088 204.367 35.899 204.845 36.4825 204.845C37.066 204.845 37.5445 204.332 37.5445 203.772Z" fill="white"/>
<path d="M35.8761 218.967V228.21H34.8724V227.323H27.1581V228.233H26.1777V218.967H35.8761ZM34.8724 226.389V219.912H27.1581V226.389H34.8724Z" fill="white"/>
<path d="M25.676 235.131C26.9364 235.411 28.5003 235.948 29.4457 236.391L29.0255 237.267C28.1035 236.823 26.493 236.263 25.2559 235.983L25.676 235.131ZM26.5046 241.97C30.9979 240.464 34.1723 237.99 36.028 233.824C36.238 234.011 36.6582 234.314 36.8799 234.454C35.0009 238.585 31.6865 241.211 27.4616 242.717C27.5083 242.845 27.415 243.009 27.3099 243.067L26.5163 241.97H26.5046ZM27.2049 231.653C28.4653 231.991 30.0059 232.552 30.9512 233.019L30.4844 233.87C29.4923 233.369 28.0335 232.808 26.7731 232.458L27.1932 231.641L27.2049 231.653ZM33.7638 231.198C34.3357 231.688 35.141 232.552 35.5728 233.229L35.0243 233.637C34.6275 233.03 33.8222 232.097 33.2503 231.595L33.7638 231.198ZM35.7012 230.334C36.2731 230.824 37.0667 231.711 37.5218 232.353L36.9733 232.762C36.5532 232.143 35.7712 231.245 35.1993 230.743L35.7012 230.334Z" fill="white"/>
<path d="M36.1913 247.549V248.366H32.7485V253.862H36.9733V254.679H27.625V253.862H31.8498V248.366H28.4303V247.549H36.1797H36.1913Z" fill="white"/>
<path d="M35.9114 261.717C35.853 261.787 35.783 261.857 35.7013 261.915C34.2308 266.455 31.9317 269.361 28.0686 271.322C27.9052 271.088 27.6368 270.762 27.3567 270.552C31.0213 268.778 33.2855 265.977 34.4525 262.265H29.4575C28.6405 263.526 27.5668 264.74 26.318 265.72C26.1196 265.522 25.8045 265.253 25.5244 265.078C27.4267 263.608 29.0373 261.472 29.9943 258.998L31.3248 259.371C31.2664 259.511 31.103 259.558 30.9163 259.558C30.6362 260.176 30.3444 260.76 30.0177 261.32H34.9427L35.1061 261.238L35.8997 261.717H35.9114Z" fill="white"/>
<path d="M34.9774 280.518C33.5536 279.748 31.5929 278.838 30.064 278.231V285.233H29.0137V273.073L30.4258 273.154C30.4142 273.306 30.2975 273.411 30.064 273.446V277.531L30.2741 277.239C31.908 277.846 34.0788 278.803 35.5376 279.573L34.9774 280.507V280.518Z" fill="white"/>
<path d="M34.7898 291.326H24.5195V286.669H25.2665V290.602H34.8015V291.326H34.7898Z" fill="white"/>
<path d="M5.21657 0.420147C5.16989 0.513514 5.06485 0.560197 4.88979 0.560197C3.9678 2.6726 2.49729 4.79668 1.00343 6.16216C0.805026 5.96376 0.431561 5.66032 0.174805 5.52027C1.68033 4.2715 3.11584 2.13575 3.99114 0L5.21657 0.420147ZM6.69876 5.06511C6.65208 5.18182 6.53537 5.25184 6.34864 5.25184C5.69507 6.92076 4.65638 9.16155 3.72272 10.8538C5.69507 10.7955 8.02923 10.7138 10.2817 10.6321C9.60478 9.67506 8.82284 8.65971 8.12259 7.83108L9.00957 7.41093C10.3167 8.89312 11.7989 10.8655 12.5108 12.1376L11.5771 12.6511C11.3904 12.301 11.1453 11.8925 10.8536 11.449C7.34065 11.6591 3.60601 11.8108 1.28353 11.9158C1.26019 12.0326 1.15515 12.1026 1.06178 12.1143L0.664977 10.9355L2.66068 10.8771C3.64102 9.13821 4.76141 6.58231 5.40331 4.71499L6.71043 5.06511H6.69876ZM8.92788 0C9.89655 1.89066 11.7055 4.16646 13.0126 5.35688C12.7559 5.55528 12.4058 5.90541 12.2307 6.15049C10.9119 4.80835 9.11461 2.36916 8.01756 0.373464L8.92788 0Z" fill="white"/>
<path d="M12.8494 17.191H8.6363C8.98642 21.7309 10.0951 25.6173 11.6007 25.6173C12.0091 25.6173 12.1842 24.8003 12.2776 22.898C12.4993 23.1081 12.8494 23.3298 13.1179 23.4348C12.9311 25.8974 12.5577 26.6093 11.519 26.6093C9.23151 26.6093 8.05276 22.2561 7.65595 17.191H0.22168V16.269H7.58593C7.53925 15.4054 7.5159 14.5184 7.50423 13.6431L8.82303 13.7131C8.82303 13.8415 8.74133 13.9115 8.53126 13.9348C8.53126 14.7168 8.54293 15.4987 8.58962 16.269H12.8611V17.191H12.8494ZM4.27143 20.3071V24.4735C5.29846 24.2518 6.3605 24.0067 7.38753 23.7733L7.45755 24.6019C5.06505 25.2088 2.48581 25.804 0.875242 26.1541C0.863572 26.2708 0.781876 26.3525 0.676839 26.3759L0.280033 25.2788C1.10866 25.1271 2.15903 24.917 3.31443 24.6603V20.2954H0.711852V19.3968H6.97905V20.2954H4.25976L4.27143 20.3071ZM10.1652 13.6547C10.9238 14.1566 11.8341 14.8918 12.2659 15.3937L11.6123 16.0122C11.1805 15.4987 10.2935 14.7051 9.53495 14.1916L10.1652 13.6547Z" fill="white"/>
<path d="M12.4299 29.2586C12.4299 29.2586 12.3132 29.352 12.2432 29.387C11.4846 31.1843 10.2825 32.7365 8.92866 33.8686C8.71858 33.6818 8.32178 33.4368 8.07669 33.2967C9.36048 32.363 10.3992 30.9976 10.866 29.8305H0.84082V28.8735H11.3912L11.5429 28.8035L12.4182 29.2703L12.4299 29.2586ZM6.96797 31.8029C6.9563 31.9196 6.82792 32.0129 6.64119 32.0363C6.23271 35.3391 5.10065 38.4902 2.21797 40.1591C2.01957 39.9957 1.65777 39.6689 1.38935 39.5172C4.24868 37.9533 5.26404 35.024 5.60249 31.6511L6.9563 31.8029H6.96797Z" fill="white"/>
<path d="M1.69246 43.1235C3.15131 43.5903 4.8319 44.3139 5.85893 45.0258L5.32207 45.9011C4.31839 45.1892 2.66114 44.4423 1.2373 43.9521L1.68079 43.1118L1.69246 43.1235ZM1.63411 52.8219C6.60585 51.2813 9.90868 48.492 11.5893 44.6173C11.881 44.8508 12.2078 45.0375 12.4996 45.1892C10.749 49.0289 7.32944 52.0049 2.59111 53.5922C2.57944 53.7205 2.49775 53.8606 2.39271 53.9189L1.63411 52.8219Z" fill="white"/>
<path d="M4.78456 58.1788C4.73788 58.2955 4.63284 58.3772 4.42277 58.3889C3.86257 61.7501 2.70717 65.2863 1.06159 67.3637C0.804834 67.1653 0.431369 66.9902 0.12793 66.8619C1.69181 64.9595 2.92891 61.3999 3.3724 57.887L4.78456 58.1788ZM11.822 67.2703C11.1685 64.8195 9.53456 60.8514 8.09906 58.2605L9.00938 57.8287C10.4799 60.3379 12.1138 64.2826 12.8491 66.8735L11.822 67.282V67.2703ZM9.79132 56.0197C10.4332 56.5916 11.1218 57.4669 11.4953 58.0971L10.9584 58.4939C10.5616 57.8637 9.838 56.9534 9.25446 56.4165L9.79132 56.0197ZM11.647 55.2961C12.2772 55.8797 12.9774 56.72 13.3626 57.3502L12.814 57.7587C12.4172 57.1285 11.6937 56.2298 11.1101 55.7046L11.647 55.2961Z" fill="white"/>
<path d="M12.5925 74.1911H9.66316V75.1597C9.66316 77.8323 8.83454 80.5516 5.18159 82.1972C4.99486 81.9755 4.70309 81.6954 4.45801 81.497C8.01759 79.9564 8.67115 77.4706 8.67115 75.1714V74.1911H4.15457V77.6806H3.16255V74.1911H0.419922V73.2341H3.16255V70.1997L4.50469 70.2814C4.49302 70.4214 4.36464 70.5498 4.15457 70.5731V73.2341H8.67115V70.0129L10.0133 70.0946C10.0016 70.223 9.88491 70.328 9.66316 70.3631V73.2341H12.5925V74.1911Z" fill="white"/>
<path d="M11.087 86.4337C11.0754 86.5154 11.0053 86.5504 10.9237 86.5854C10.4218 88.2777 9.74491 89.8649 8.89294 91.207C9.49982 91.5571 10.2351 91.989 10.7603 92.3508L10.1767 93.2611C9.67488 92.8643 8.90461 92.4091 8.3094 92.059C7.02562 93.8329 5.41505 95.2685 3.2793 96.2605C3.13925 96.0271 2.77746 95.6886 2.5207 95.5135C4.56309 94.5915 6.16198 93.2261 7.43409 91.5571C6.3954 90.9853 5.32169 90.4601 4.29466 90.0866L4.84319 89.3164C5.87021 89.6898 6.95559 90.18 8.01763 90.7402C8.72955 89.6431 9.32476 88.301 9.69822 87.0289H5.0766C4.17795 88.5344 3.06923 89.9116 1.9255 90.8452C1.7621 90.6818 1.3653 90.3667 1.14355 90.215C2.96419 88.8145 4.57476 86.3637 5.41505 83.9711L6.72218 84.3446C6.66383 84.4963 6.50043 84.543 6.32537 84.5313C6.12697 85.0332 5.88188 85.5817 5.61346 86.0836H10.1534L10.2818 86.0369L11.0987 86.4103L11.087 86.4337ZM9.79159 83.656C10.4452 84.1696 11.2388 85.0098 11.6589 85.6167L11.1221 86.0485C10.7252 85.4884 9.9083 84.578 9.28975 84.0879L9.79159 83.656ZM11.5889 83.1309C12.2424 83.6444 13.0711 84.473 13.4912 85.0682L12.9427 85.4883C12.5692 84.9165 11.6939 84.0412 11.0987 83.5743L11.5889 83.1425V83.1309Z" fill="white"/>
<path d="M5.95215 98.1743L7.39932 98.291C7.38765 98.4427 7.25927 98.5478 7.02586 98.5828V110.032H5.96382V98.1743H5.95215Z" fill="white"/>
<path d="M10.9587 126.021C10.9003 126.103 10.807 126.149 10.6319 126.138C10.2351 126.686 9.5932 127.468 9.06802 127.982H12.8493V128.845H0.198242V127.982H4.03792C3.69947 127.421 3.0109 126.593 2.40402 126.009L3.23264 125.636C3.87453 126.208 4.60979 127.036 4.93657 127.608L4.10795 127.982H8.97465L8.21605 127.643C8.75291 127.083 9.41814 126.196 9.79161 125.577L10.9587 126.021ZM5.55512 130.164L6.03362 130.176V137.54C6.03362 138.532 5.56679 138.614 3.58276 138.614C3.52441 138.357 3.38436 138.007 3.25598 137.773C3.55942 137.785 3.87453 137.785 4.11962 137.785C4.78096 137.785 5.11163 137.696 5.11163 137.517V135.533H2.05389V138.649H1.15524V130.152H5.55512V130.164ZM5.1233 130.981H2.05389V132.475H5.1233V130.981ZM2.05389 134.774H5.1233V133.233H2.05389V134.774ZM7.63252 130.304L8.81126 130.386C8.79959 130.467 8.7179 130.537 8.53117 130.572V136.128H7.63252V130.304ZM11.7873 137.482C11.7873 138.579 11.3555 138.66 8.998 138.66C8.95131 138.392 8.78792 138.007 8.64787 137.75C9.16139 137.762 9.65156 137.773 10.0017 137.773C10.772 137.773 10.8536 137.773 10.8536 137.482V129.872L12.0557 129.931C12.0324 130.024 11.9624 130.117 11.7756 130.129V137.493L11.7873 137.482Z" fill="white"/>
<path d="M0.782227 140.609H12.3713V152.525H11.4026V151.638H1.71589V152.525H0.782227V140.609ZM5.99906 141.531H1.71589V145.593H5.99906V141.531ZM1.71589 146.526V150.693H5.99906V146.526H1.71589ZM11.4026 145.593V141.531H6.95606V145.593H11.4026ZM6.95606 150.705H11.4026V146.538H6.95606V150.705Z" fill="white"/>
<path d="M3.9097 162.959C4.86671 162.877 5.85872 162.795 6.83907 162.69V163.449C5.85872 163.566 4.86671 163.671 3.9097 163.776V165.69C3.9097 166.6 3.4312 166.647 1.59889 166.647C1.55221 166.413 1.4355 166.087 1.3188 165.853C1.97236 165.876 2.57924 165.876 2.76597 165.876C2.92936 165.865 2.98771 165.818 2.98771 165.666V163.869C2.01904 163.962 1.15541 164.068 0.478501 164.126C0.46683 164.243 0.385135 164.313 0.268428 164.324L0 163.297C0.793612 163.239 1.83231 163.146 2.97604 163.04V162.142L3.37285 162.165C3.83968 161.873 4.29484 161.512 4.69165 161.138H0.46683V160.368H5.53194L5.68366 160.321L6.37224 160.765C6.32555 160.835 6.24386 160.881 6.16216 160.881C5.60197 161.453 4.71499 162.153 3.9097 162.644V162.935V162.959ZM6.72236 155.163V155.991H0.046683V155.163H2.98771V153.622L4.17813 153.704C4.16646 153.797 4.09644 153.867 3.9097 153.891V155.163H6.72236ZM5.85872 159.598H0.863636V156.785H5.85872V159.598ZM1.75061 157.497V158.886H4.93673V157.497H1.75061ZM13.0362 157.17H12.2193C11.8108 159.469 11.1923 161.395 10.2469 162.959C10.9472 164.126 11.8808 165.13 13.1296 165.818C12.9312 166.005 12.6161 166.402 12.476 166.658C11.2856 165.923 10.3753 164.919 9.67506 163.799C8.76474 165.001 7.59767 165.958 6.11548 166.67C5.97543 166.46 5.68366 166.098 5.47359 165.911C7.04914 165.2 8.23956 164.184 9.14988 162.854C8.49631 161.547 8.07617 160.134 7.79607 158.804C7.5043 159.458 7.17752 160.064 6.82739 160.555C6.67568 160.356 6.34889 160.018 6.13882 159.854C7.13084 158.454 7.87776 156.003 8.29791 153.587L9.54668 153.867C9.52334 153.961 9.4183 154.019 9.2199 154.019C9.06818 154.789 8.88145 155.56 8.67138 156.306H13.0246V157.158L13.0362 157.17ZM8.41462 157.17C8.40295 157.24 8.36794 157.298 8.35627 157.368C8.61302 158.874 9.00983 160.485 9.6984 161.955C10.4103 160.625 10.9005 159.026 11.2273 157.17H8.41462Z" fill="white"/>
<path d="M12.9658 174.011V174.945H7.04869V179.38C7.04869 180.057 6.86196 180.337 6.36012 180.5C5.85827 180.652 4.94795 180.663 3.55913 180.663C3.48911 180.383 3.32572 179.963 3.15066 179.683C3.89759 179.706 4.59783 179.73 5.088 179.73C5.96331 179.73 6.08002 179.73 6.08002 179.368V174.945H0.12793V174.011H6.08002V171.712L6.62854 171.735C7.73727 171.163 8.93936 170.335 9.838 169.565H1.5751V168.643H10.865L11.0284 168.573L11.8687 169.133C11.822 169.203 11.717 169.226 11.6353 169.261C10.4916 170.358 8.62424 171.665 7.02535 172.494V174.011H12.9424H12.9658Z" fill="white"/>
</g>
<defs>
<clipPath id="clip0_1460_19787">
<rect width="38" height="291.326" fill="white"/>
</clipPath>
</defs>
</svg>
